<?xml version="1.0" encoding="utf-8"?>
<!-- Generator: Adobe Illustrator 22.0.0, SVG Export Plug-In . SVG Version: 6.00 Build 0)  -->
<svg version="1.1" id="Layer_1" xmlns="http://www.w3.org/2000/svg" xmlns:xlink="http://www.w3.org/1999/xlink" x="0px" y="0px"
	 viewBox="0 0 257.2 273" style="enable-background:new 0 0 257.2 273;" xml:space="preserve">
<style type="text/css">
	.st0{clip-path:url(#SVGID_2_);fill:#7C1622;}
	.st1{clip-path:url(#SVGID_2_);fill:#123A3C;}
	.st2{clip-path:url(#SVGID_2_);fill:#575756;}
	.st3{clip-path:url(#SVGID_2_);}
	.st4{clip-path:url(#SVGID_4_);fill:#575756;}
	.st5{clip-path:url(#SVGID_4_);fill:#123A3C;}
	.st6{clip-path:url(#SVGID_4_);fill:#9D1622;}
	.st7{clip-path:url(#SVGID_4_);fill:#7C1622;}
	.st8{clip-path:url(#SVGID_6_);fill:url(#SVGID_7_);}
	.st9{clip-path:url(#SVGID_9_);fill:#FFFFFF;}
	.st10{clip-path:url(#SVGID_9_);fill:#1D1D1B;}
	.st11{clip-path:url(#SVGID_9_);fill:#9D9D9C;}
</style>
<g>
	<g>
		<defs>
			<rect id="SVGID_1_" x="-1215.6" y="-102.2" width="2706.4" height="1496.7"/>
		</defs>
		<clipPath id="SVGID_2_">
			<use xlink:href="#SVGID_1_"  style="overflow:visible;"/>
		</clipPath>
		<rect x="-1215.6" y="646.2" class="st0" width="902.1" height="748.4"/>
		<rect x="-313.5" y="646.2" class="st1" width="902.1" height="748.4"/>
		<rect x="588.7" y="646.2" class="st2" width="902.1" height="748.4"/>
		<polygon class="st2" points="-133.9,477.1 -143.5,477.1 -143.5,503.2 -147.5,503.2 -147.5,477.1 -157,477.1 -157,474 -133.9,474 
					"/>
		<polygon class="st2" points="-86.8,489.7 -98.8,489.7 -98.8,500.1 -84.7,500.1 -84.7,503.2 -102.7,503.2 -102.7,474 -85,474 
			-85,477.1 -98.8,477.1 -98.8,486.6 -86.8,486.6 		"/>
		<g class="st3">
			<defs>
				<rect id="SVGID_3_" x="-1215.6" y="-102.2" width="2706.4" height="1496.7"/>
			</defs>
			<clipPath id="SVGID_4_">
				<use xlink:href="#SVGID_3_"  style="overflow:visible;"/>
			</clipPath>
			<path class="st4" d="M-32.2,493.9l0,0.1c0.1,2.7-0.9,5-2.9,6.9c-2,1.8-4.6,2.8-7.8,2.8c-3.3,0-6-1.2-8.1-3.5
				c-2.1-2.3-3.1-5.3-3.1-8.9V486c0-3.6,1-6.6,3.1-8.9c2.1-2.3,4.8-3.5,8.1-3.5c3.3,0,5.9,0.9,7.9,2.6c1.9,1.8,2.9,4.1,2.8,7l0,0.1
				H-36c0-2-0.6-3.7-1.8-4.8c-1.2-1.2-2.9-1.8-5.1-1.8c-2.2,0-4,0.9-5.3,2.7c-1.3,1.8-2,4-2,6.6v5.2c0,2.7,0.7,4.9,2,6.6
				c1.3,1.8,3.1,2.7,5.3,2.7c2.2,0,3.9-0.6,5.1-1.8c1.2-1.2,1.8-2.8,1.8-4.9H-32.2z"/>
			<polygon class="st4" points="22.1,503.2 18.1,503.2 18.1,490.3 4,490.3 4,503.2 0,503.2 0,474 4,474 4,487.2 18.1,487.2 
				18.1,474 22.1,474 			"/>
			<polygon class="st4" points="78,503.2 74,503.2 60,480.9 59.9,481 59.9,503.2 55.9,503.2 55.9,474 59.9,474 73.9,496.3 74,496.3 
				74,474 78,474 			"/>
			<path class="st4" d="M134.1,491.2c0,3.6-1.1,6.5-3.3,8.9c-2.2,2.3-5.1,3.5-8.6,3.5c-3.4,0-6.2-1.2-8.3-3.5
				c-2.1-2.3-3.2-5.3-3.2-8.9V486c0-3.6,1.1-6.5,3.2-8.9c2.1-2.4,4.9-3.5,8.3-3.5c3.5,0,6.4,1.2,8.6,3.5c2.2,2.4,3.3,5.3,3.3,8.9
				V491.2z M130.2,486c0-2.7-0.7-4.9-2.2-6.6c-1.4-1.7-3.4-2.6-5.8-2.6c-2.3,0-4.1,0.9-5.5,2.6c-1.4,1.7-2.1,3.9-2.1,6.6v5.2
				c0,2.7,0.7,4.9,2.1,6.6c1.4,1.7,3.2,2.6,5.5,2.6c2.4,0,4.4-0.9,5.8-2.6c1.4-1.7,2.2-3.9,2.2-6.6V486z"/>
			<polygon class="st4" points="170.8,500.1 185.1,500.1 185.1,503.2 166.9,503.2 166.9,474 170.8,474 			"/>
			<path class="st4" d="M237.5,491.2c0,3.6-1.1,6.5-3.3,8.9c-2.2,2.3-5.1,3.5-8.6,3.5c-3.4,0-6.2-1.2-8.3-3.5
				c-2.1-2.3-3.2-5.3-3.2-8.9V486c0-3.6,1.1-6.5,3.2-8.9c2.1-2.4,4.9-3.5,8.3-3.5c3.5,0,6.4,1.2,8.6,3.5c2.2,2.4,3.3,5.3,3.3,8.9
				V491.2z M233.5,486c0-2.7-0.7-4.9-2.2-6.6c-1.4-1.7-3.4-2.6-5.8-2.6c-2.3,0-4.1,0.9-5.5,2.6c-1.4,1.7-2.1,3.9-2.1,6.6v5.2
				c0,2.7,0.7,4.9,2.1,6.6c1.4,1.7,3.2,2.6,5.5,2.6c2.4,0,4.4-0.9,5.8-2.6c1.4-1.7,2.2-3.9,2.2-6.6V486z"/>
			<path class="st4" d="M291.2,499.3c-0.7,1.1-1.9,2.1-3.6,3c-1.7,0.9-3.9,1.4-6.7,1.4c-3.4,0-6.1-1.1-8.3-3.3
				c-2.2-2.2-3.3-5.1-3.3-8.6v-6c0-3.5,1.1-6.4,3.2-8.6c2.1-2.2,4.9-3.3,8.2-3.3c3.2,0,5.8,0.9,7.7,2.6c1.9,1.7,2.8,3.9,2.7,6.6
				l0,0.1h-3.8c0-1.8-0.6-3.3-1.7-4.4c-1.1-1.2-2.8-1.8-4.9-1.8c-2.2,0-4,0.8-5.4,2.5c-1.4,1.7-2,3.8-2,6.3v6c0,2.6,0.7,4.7,2.2,6.4
				c1.4,1.7,3.3,2.5,5.5,2.5c1.7,0,3.1-0.2,4.1-0.7c1-0.4,1.8-1,2.3-1.6v-6.6h-6.6v-3.1h10.6V499.3z"/>
			<rect x="325.5" y="474" class="st4" width="4" height="29.2"/>
			<polygon class="st4" points="379.6,489.7 367.7,489.7 367.7,500.1 381.7,500.1 381.7,503.2 363.7,503.2 363.7,474 381.5,474 
				381.5,477.1 367.7,477.1 367.7,486.6 379.6,486.6 			"/>
			<path class="st4" d="M428.9,495.9c0-1.3-0.5-2.4-1.4-3.3c-0.9-0.9-2.6-1.7-5-2.3c-3-0.7-5.3-1.8-6.9-3.2
				c-1.7-1.4-2.5-3.2-2.5-5.4c0-2.3,0.9-4.2,2.7-5.7c1.8-1.5,4.1-2.3,7-2.3c3.1,0,5.5,0.9,7.3,2.6c1.8,1.7,2.7,3.8,2.7,6.1l-0.1,0.1
				h-3.8c0-1.7-0.6-3-1.7-4.1c-1.2-1.1-2.6-1.6-4.4-1.6c-1.8,0-3.3,0.4-4.2,1.3c-1,0.9-1.5,2.1-1.5,3.5c0,1.3,0.5,2.3,1.6,3.2
				c1.1,0.8,2.8,1.6,5.2,2.2c2.9,0.8,5.2,1.9,6.7,3.4c1.5,1.5,2.3,3.3,2.3,5.5c0,2.4-0.9,4.2-2.8,5.7c-1.8,1.4-4.3,2.1-7.2,2.1
				c-2.8,0-5.3-0.8-7.5-2.4c-2.2-1.6-3.2-3.7-3.1-6.3l0-0.1h3.8c0,1.8,0.7,3.2,2.1,4.2c1.4,1,3,1.5,4.7,1.5c1.9,0,3.3-0.4,4.4-1.3
				C428.4,498.4,428.9,497.3,428.9,495.9"/>
			
				<rect x="212.4" y="99.3" transform="matrix(0.7071 -0.7071 0.7071 0.7071 -11.4412 187.698)" class="st4" width="16.8" height="16.8"/>
			
				<rect x="200.5" y="87.4" transform="matrix(0.7071 -0.7071 0.7071 0.7071 -6.5147 175.8049)" class="st4" width="16.8" height="16.8"/>
			
				<rect x="117.3" y="218.2" transform="matrix(0.7071 -0.7071 0.7071 0.7071 -123.4045 155.2542)" class="st4" width="16.8" height="16.8"/>
			
				<rect x="141.1" y="194.4" transform="matrix(0.7071 -0.7071 0.7071 0.7071 -99.6185 165.1058)" class="st4" width="16.8" height="16.8"/>
			
				<rect x="129.2" y="206.3" transform="matrix(0.7071 -0.7071 0.7071 0.7071 -111.5115 160.1793)" class="st4" width="16.8" height="16.8"/>
			
				<rect x="153" y="182.5" transform="matrix(0.7071 -0.7071 0.7071 0.7071 -87.7257 170.032)" class="st4" width="16.8" height="16.8"/>
			
				<rect x="224.3" y="111.1" transform="matrix(0.7071 -0.7071 0.7071 0.7071 -16.3673 199.5912)" class="st4" width="16.8" height="16.8"/>
			
				<rect x="45.9" y="170.6" transform="matrix(0.7071 -0.7071 0.7071 0.7071 -110.6663 90.8627)" class="st4" width="16.8" height="16.8"/>
			
				<rect x="57.8" y="182.5" transform="matrix(0.7071 -0.7071 0.7071 0.7071 -115.5924 102.7559)" class="st4" width="16.8" height="16.8"/>
			
				<rect x="141.1" y="51.7" transform="matrix(0.7071 -0.7071 0.7071 0.7071 1.2972 123.3063)" class="st4" width="16.8" height="16.8"/>
			
				<rect x="117.3" y="75.5" transform="matrix(0.7071 -0.7071 0.7071 0.7071 -22.4885 113.4546)" class="st4" width="16.8" height="16.8"/>
			
				<rect x="129.2" y="63.6" transform="matrix(0.7071 -0.7071 0.7071 0.7071 -10.5953 118.3807)" class="st4" width="16.8" height="16.8"/>
			
				<rect x="105.4" y="87.4" transform="matrix(0.7071 -0.7071 0.7071 0.7071 -34.3817 108.5282)" class="st4" width="16.8" height="16.8"/>
			
				<rect x="34" y="158.7" transform="matrix(0.7071 -0.7071 0.7071 0.7071 -105.7401 78.9697)" class="st4" width="16.8" height="16.8"/>
			
				<rect x="188.7" y="123" transform="matrix(0.7071 -0.7071 0.7071 0.7071 -35.2272 177.8453)" class="st5" width="16.8" height="16.8"/>
			
				<rect x="212.4" y="146.8" transform="matrix(0.7071 -0.7071 0.7071 0.7071 -45.0799 201.6301)" class="st5" width="16.8" height="16.8"/>
			
				<rect x="176.8" y="111.1" transform="matrix(0.7071 -0.7071 0.7071 0.7071 -30.301 165.9523)" class="st5" width="16.8" height="16.8"/>
			
				<rect x="200.5" y="134.9" transform="matrix(0.7071 -0.7071 0.7071 0.7071 -40.1536 189.7385)" class="st5" width="16.8" height="16.8"/>
			
				<rect x="164.9" y="218.2" transform="matrix(0.7071 -0.7071 0.7071 0.7071 -109.4712 188.8916)" class="st5" width="16.8" height="16.8"/>
			
				<rect x="153" y="230.1" transform="matrix(0.7071 -0.7071 0.7071 0.7071 -121.3641 183.9654)" class="st5" width="16.8" height="16.8"/>
			
				<rect x="176.8" y="206.3" transform="matrix(0.7071 -0.7071 0.7071 0.7071 -97.5779 193.818)" class="st5" width="16.8" height="16.8"/>
			
				<rect x="69.7" y="146.8" transform="matrix(0.7071 -0.7071 0.7071 0.7071 -86.8801 100.7153)" class="st5" width="16.8" height="16.8"/>
			
				<rect x="45.9" y="123" transform="matrix(0.7071 -0.7071 0.7071 0.7071 -77.0279 76.9302)" class="st5" width="16.8" height="16.8"/>
			
				<rect x="81.6" y="158.7" transform="matrix(0.7071 -0.7071 0.7071 0.7071 -91.8065 112.6084)" class="st5" width="16.8" height="16.8"/>
			
				<rect x="57.8" y="134.9" transform="matrix(0.7071 -0.7071 0.7071 0.7071 -81.9539 88.8224)" class="st5" width="16.8" height="16.8"/>
			
				<rect x="93.5" y="51.7" transform="matrix(0.7071 -0.7071 0.7071 0.7071 -12.636 89.6683)" class="st5" width="16.8" height="16.8"/>
			
				<rect x="105.4" y="39.8" transform="matrix(0.7071 -0.7071 0.7071 0.7071 -0.7428 94.5944)" class="st5" width="16.8" height="16.8"/>
			
				<rect x="81.6" y="63.6" transform="matrix(0.7071 -0.7071 0.7071 0.7071 -24.529 84.742)" class="st5" width="16.8" height="16.8"/>
			
				<rect x="69.7" y="99.2" transform="matrix(0.7071 -0.7071 0.7071 0.7071 -53.2416 86.7825)" class="st6" width="16.8" height="16.8"/>
			
				<rect x="188.7" y="170.6" transform="matrix(0.7071 -0.7071 0.7071 0.7071 -68.8658 191.7775)" class="st6" width="16.8" height="16.8"/>
			
				<rect x="164.9" y="146.8" transform="matrix(0.7071 -0.7071 0.7071 0.7071 -59.0134 167.9915)" class="st6" width="16.8" height="16.8"/>
			
				<rect x="93.5" y="194.4" transform="matrix(0.7071 -0.7071 0.7071 0.7071 -113.5521 131.4684)" class="st6" width="16.8" height="16.8"/>
			
				<rect x="117.3" y="170.6" transform="matrix(0.7071 -0.7071 0.7071 0.7071 -89.7659 141.3207)" class="st6" width="16.8" height="16.8"/>
			
				<rect x="81.6" y="206.3" transform="matrix(0.7071 -0.7071 0.7071 0.7071 -125.4451 126.5419)" class="st6" width="16.8" height="16.8"/>
			
				<rect x="105.4" y="182.5" transform="matrix(0.7071 -0.7071 0.7071 0.7071 -101.6589 136.3945)" class="st6" width="16.8" height="16.8"/>
			
				<rect x="129.2" y="158.7" transform="matrix(0.7071 -0.7071 0.7071 0.7071 -77.873 146.2459)" class="st6" width="16.8" height="16.8"/>
			
				<rect x="153" y="134.9" transform="matrix(0.7071 -0.7071 0.7071 0.7071 -54.0872 156.0997)" class="st6" width="16.8" height="16.8"/>
			
				<rect x="176.8" y="158.7" transform="matrix(0.7071 -0.7071 0.7071 0.7071 -63.9395 179.8846)" class="st6" width="16.8" height="16.8"/>
			
				<rect x="200.5" y="182.5" transform="matrix(0.7071 -0.7071 0.7071 0.7071 -73.7922 203.6705)" class="st6" width="16.8" height="16.8"/>
			
				<rect x="93.5" y="123" transform="matrix(0.7071 -0.7071 0.7071 0.7071 -63.0942 110.5689)" class="st6" width="16.8" height="16.8"/>
			
				<rect x="164.9" y="75.5" transform="matrix(0.7071 -0.7071 0.7071 0.7071 -8.5553 147.0926)" class="st6" width="16.8" height="16.8"/>
			
				<rect x="141.1" y="99.3" transform="matrix(0.7071 -0.7071 0.7071 0.7071 -32.3416 137.2399)" class="st6" width="16.8" height="16.8"/>
			
				<rect x="176.8" y="63.6" transform="matrix(0.7071 -0.7071 0.7071 0.7071 3.3377 152.0187)" class="st6" width="16.8" height="16.8"/>
			
				<rect x="153" y="87.4" transform="matrix(0.7071 -0.7071 0.7071 0.7071 -20.4483 142.1661)" class="st6" width="16.8" height="16.8"/>
			
				<rect x="129.2" y="111.1" transform="matrix(0.7071 -0.7071 0.7071 0.7071 -44.2343 132.3145)" class="st6" width="16.8" height="16.8"/>
			
				<rect x="105.4" y="134.9" transform="matrix(0.7071 -0.7071 0.7071 0.7071 -68.0203 122.461)" class="st6" width="16.8" height="16.8"/>
			
				<rect x="81.6" y="111.1" transform="matrix(0.7071 -0.7071 0.7071 0.7071 -58.168 98.6758)" class="st6" width="16.8" height="16.8"/>
			
				<rect x="57.8" y="87.4" transform="matrix(0.7071 -0.7071 0.7071 0.7071 -48.3154 74.8894)" class="st6" width="16.8" height="16.8"/>
			<path class="st7" d="M-2.4,440.9c12.2,12.2,29.3,19.2,50.9,19.2c22.2,0,39.7-7.4,52-20.2c-18.8,1.7-38,2.5-57.4,2.5
				C27.7,442.5,12.5,441.9-2.4,440.9"/>
			<path class="st7" d="M-96.9,434.7c-15.4,0-24.9-4.9-28.9-14.6c-10.4-2.9-20.6-6-30.6-9.3h-1.3c0.9,32.7,21,49.3,60.8,49.3
				c27.6,0,45.7-7.8,54.2-23.3c-11.7-1.5-23.2-3.4-34.6-5.6C-82,433.6-88.5,434.7-96.9,434.7"/>
			<path class="st7" d="M362.3,360.4l-2.7-4.7c-7.7,4.8-15.5,9.5-23.5,14l7.2,11.3l-47.1,77h35.6l30.5-52.2l30.7,52.2h35.8l-47.1-77
				l47.1-73.4H423c-16.7,15.2-35,29.4-54.6,42.4L362.3,360.4z"/>
			<path class="st7" d="M135.4,457.9h104.2v-27.6h-70.8c-11,2.2-22.1,4.1-33.4,5.7V457.9z"/>
			<path class="st7" d="M252.4,457.9h30.7v-62.5c-10,4.2-20.3,8.2-30.7,11.9V457.9z"/>
		</g>
		<g class="st3">
			<defs>
				<path id="SVGID_5_" d="M-156.4,410.8c10,3.4,20.2,6.5,30.6,9.3c-1.1-2.7-1.8-5.8-2.1-9.3H-156.4z M150.9,307.5
					c-8.6,0-15.5,7.5-15.5,16.1v112.3c11.3-1.6,22.4-3.5,33.4-5.7h-2.6V307.5H150.9z M267.9,307.5c-10.4,0-15.5,5.5-15.5,16.1v83.7
					c10.5-3.7,20.7-7.7,30.7-11.9v-87.9H267.9z M296.2,307.5l39.9,62.2c8-4.5,15.9-9.2,23.5-14l-27.8-48.1H296.2z M402.1,307.5
					c-6.4,0-10.8,2.7-13.5,7.7L368.4,350c19.6-13,37.9-27.2,54.6-42.4H402.1z M7.3,382.7c0-29.2,13.1-50.9,41.1-50.9
					s41.4,21.2,41.4,50.9c0,30.3-13.3,51.5-41.4,51.5S7.3,412.1,7.3,382.7 M-23.4,382.7c0,24.3,7.4,44.5,21,58.2
					c15,1,30.1,1.6,45.4,1.6c19.4,0,38.6-0.9,57.4-2.5c13.1-13.6,20.1-33.4,20.1-57.3c0-45.6-27.2-77.6-72.1-77.6
					C3.8,305.1-23.4,336.7-23.4,382.7 M-155.5,352c0,19.9,14.6,33.6,44,41.1c10.8,2.9,21,5.5,29.9,8.2c9.3,2.7,13.7,7.5,13.7,14.8
					c0.1,7.1-3,12.2-9.4,15.2c11.4,2.1,22.9,4,34.6,5.5c3.2-5.8,5.1-12.7,5.6-20.8c0.9-19-7.1-31.4-23.9-37.2
					c-12.6-4.4-24.6-7.7-35.8-10.4c-19.7-4.4-29.2-11.3-29.2-20.8c0.7-11.5,8.6-17.5,24.6-17.7c13,0,22.1,4.2,27.2,12.8
					c2.9,5.8,7.3,8.8,13.7,8.8h17.3c-1.8-31.2-20.1-46.7-55.5-46.7c-0.3,0-0.5,0-0.8,0C-136.3,305.1-154.8,320.6-155.5,352"/>
			</defs>
			<clipPath id="SVGID_6_">
				<use xlink:href="#SVGID_5_"  style="overflow:visible;"/>
			</clipPath>
			
				<radialGradient id="SVGID_7_" cx="2.5238" cy="277.5184" r="3.4172" gradientTransform="matrix(-66.5 -19.25 -19.25 66.5 5652.7354 -18241.2656)" gradientUnits="userSpaceOnUse">
				<stop  offset="0" style="stop-color:#FFFFFF"/>
				<stop  offset="1" style="stop-color:#AF1622"/>
			</radialGradient>
			<polygon class="st8" points="378.2,597.2 -193.1,431.9 -111.6,150.3 459.7,315.7 			"/>
		</g>
		<g class="st3">
			<defs>
				<rect id="SVGID_8_" x="-1215.6" y="-102.2" width="2706.4" height="1496.7"/>
			</defs>
			<clipPath id="SVGID_9_">
				<use xlink:href="#SVGID_8_"  style="overflow:visible;"/>
			</clipPath>
			<polygon class="st9" points="-1036.1,1227.5 -1045.7,1227.5 -1045.7,1253.6 -1049.6,1253.6 -1049.6,1227.5 -1059.1,1227.5 
				-1059.1,1224.4 -1036.1,1224.4 			"/>
			<polygon class="st9" points="-988.9,1240.1 -1000.9,1240.1 -1000.9,1250.5 -986.9,1250.5 -986.9,1253.6 -1004.8,1253.6 
				-1004.8,1224.4 -987.1,1224.4 -987.1,1227.5 -1000.9,1227.5 -1000.9,1237 -988.9,1237 			"/>
			<path class="st9" d="M-934.3,1244.3l0,0.1c0.1,2.7-0.9,5-2.9,6.9c-2,1.8-4.6,2.8-7.8,2.8c-3.3,0-6-1.2-8.1-3.5
				c-2.1-2.3-3.1-5.3-3.1-8.9v-5.2c0-3.6,1-6.6,3.1-8.9c2.1-2.3,4.8-3.5,8.1-3.5s5.9,0.9,7.9,2.6c1.9,1.8,2.9,4.1,2.8,7l0,0.1h-3.8
				c0-2-0.6-3.7-1.8-4.8c-1.2-1.2-2.9-1.8-5.1-1.8c-2.2,0-4,0.9-5.3,2.7c-1.3,1.8-2,4-2,6.6v5.2c0,2.7,0.7,4.9,2,6.6
				c1.3,1.8,3.1,2.7,5.3,2.7c2.2,0,3.9-0.6,5.1-1.8c1.2-1.2,1.8-2.8,1.8-4.9H-934.3z"/>
			<polygon class="st9" points="-880.1,1253.6 -884,1253.6 -884,1240.7 -898.2,1240.7 -898.2,1253.6 -902.1,1253.6 -902.1,1224.4 
				-898.2,1224.4 -898.2,1237.6 -884,1237.6 -884,1224.4 -880.1,1224.4 			"/>
			<polygon class="st9" points="-824.2,1253.6 -828.1,1253.6 -842.1,1231.3 -842.3,1231.4 -842.3,1253.6 -846.2,1253.6 
				-846.2,1224.4 -842.3,1224.4 -828.2,1246.7 -828.1,1246.6 -828.1,1224.4 -824.2,1224.4 			"/>
			<path class="st9" d="M-768,1241.6c0,3.6-1.1,6.5-3.3,8.9c-2.2,2.3-5.1,3.5-8.6,3.5c-3.4,0-6.2-1.2-8.3-3.5
				c-2.1-2.3-3.2-5.3-3.2-8.9v-5.2c0-3.6,1.1-6.5,3.2-8.9c2.1-2.4,4.9-3.5,8.3-3.5c3.5,0,6.4,1.2,8.6,3.5c2.2,2.4,3.3,5.3,3.3,8.9
				V1241.6z M-771.9,1236.4c0-2.7-0.7-4.9-2.2-6.6c-1.4-1.7-3.4-2.6-5.8-2.6c-2.3,0-4.1,0.9-5.5,2.6c-1.4,1.7-2.1,3.9-2.1,6.6v5.2
				c0,2.7,0.7,4.9,2.1,6.6c1.4,1.7,3.2,2.6,5.5,2.6c2.4,0,4.4-0.9,5.8-2.6c1.4-1.7,2.2-3.9,2.2-6.6V1236.4z"/>
			<polygon class="st9" points="-731.3,1250.5 -717.1,1250.5 -717.1,1253.6 -735.2,1253.6 -735.2,1224.4 -731.3,1224.4 			"/>
			<path class="st9" d="M-664.7,1241.6c0,3.6-1.1,6.5-3.3,8.9c-2.2,2.3-5.1,3.5-8.6,3.5c-3.4,0-6.2-1.2-8.3-3.5
				c-2.1-2.3-3.2-5.3-3.2-8.9v-5.2c0-3.6,1.1-6.5,3.2-8.9c2.1-2.4,4.9-3.5,8.3-3.5c3.5,0,6.4,1.2,8.6,3.5c2.2,2.4,3.3,5.3,3.3,8.9
				V1241.6z M-668.6,1236.4c0-2.7-0.7-4.9-2.2-6.6c-1.4-1.7-3.4-2.6-5.8-2.6c-2.3,0-4.1,0.9-5.5,2.6c-1.4,1.7-2.1,3.9-2.1,6.6v5.2
				c0,2.7,0.7,4.9,2.1,6.6c1.4,1.7,3.2,2.6,5.5,2.6c2.4,0,4.4-0.9,5.8-2.6c1.4-1.7,2.2-3.9,2.2-6.6V1236.4z"/>
			<path class="st9" d="M-611,1249.7c-0.7,1.1-1.9,2.1-3.6,3c-1.7,0.9-3.9,1.4-6.7,1.4c-3.4,0-6.1-1.1-8.3-3.3
				c-2.2-2.2-3.3-5.1-3.3-8.6v-6c0-3.5,1.1-6.4,3.2-8.6c2.1-2.2,4.9-3.3,8.2-3.3c3.2,0,5.8,0.9,7.7,2.6c1.9,1.7,2.8,3.9,2.7,6.6
				l0,0.1h-3.8c0-1.8-0.6-3.3-1.7-4.4c-1.1-1.2-2.8-1.8-4.9-1.8c-2.2,0-4,0.8-5.4,2.5c-1.4,1.7-2,3.8-2,6.3v6c0,2.6,0.7,4.7,2.2,6.4
				s3.3,2.5,5.5,2.5c1.7,0,3.1-0.2,4.1-0.7c1-0.4,1.8-1,2.3-1.6v-6.6h-6.6v-3.1h10.6V1249.7z"/>
			<rect x="-576.7" y="1224.4" class="st9" width="4" height="29.2"/>
			<polygon class="st9" points="-522.5,1240.1 -534.5,1240.1 -534.5,1250.5 -520.5,1250.5 -520.5,1253.6 -538.4,1253.6 
				-538.4,1224.4 -520.7,1224.4 -520.7,1227.5 -534.5,1227.5 -534.5,1237 -522.5,1237 			"/>
			<path class="st9" d="M-473.2,1246.2c0-1.3-0.5-2.4-1.4-3.3c-0.9-0.9-2.6-1.7-5-2.3c-3-0.7-5.3-1.8-6.9-3.2
				c-1.7-1.4-2.5-3.2-2.5-5.4c0-2.3,0.9-4.2,2.7-5.7c1.8-1.5,4.1-2.3,7-2.3c3.1,0,5.5,0.9,7.3,2.6c1.8,1.7,2.7,3.8,2.7,6.1l-0.1,0.1
				h-3.8c0-1.7-0.6-3-1.7-4.1c-1.2-1.1-2.6-1.6-4.4-1.6c-1.8,0-3.3,0.4-4.2,1.3c-1,0.9-1.5,2.1-1.5,3.5c0,1.3,0.5,2.3,1.6,3.2
				c1.1,0.8,2.8,1.6,5.2,2.2c2.9,0.8,5.2,1.9,6.7,3.4c1.5,1.5,2.3,3.3,2.3,5.5c0,2.4-0.9,4.2-2.8,5.7c-1.8,1.4-4.3,2.1-7.2,2.1
				c-2.8,0-5.3-0.8-7.5-2.4c-2.2-1.6-3.2-3.7-3.1-6.3l0-0.1h3.8c0,1.8,0.7,3.2,2.1,4.2c1.4,1,3,1.5,4.7,1.5c1.9,0,3.3-0.4,4.4-1.3
				C-473.7,1248.8-473.2,1247.7-473.2,1246.2"/>
			
				<rect x="-689.7" y="849.6" transform="matrix(0.7071 -0.7071 0.7071 0.7071 -806.2736 -230.4341)" class="st9" width="16.8" height="16.8"/>
			
				<rect x="-701.6" y="837.7" transform="matrix(0.7071 -0.7071 0.7071 0.7071 -801.3474 -242.327)" class="st9" width="16.8" height="16.8"/>
			
				<rect x="-784.8" y="968.6" transform="matrix(0.7071 -0.7071 0.7071 0.7071 -918.237 -262.8777)" class="st9" width="16.8" height="16.8"/>
			
				<rect x="-761.1" y="944.8" transform="matrix(0.7071 -0.7071 0.7071 0.7071 -894.4498 -253.0253)" class="st9" width="16.8" height="16.8"/>
			
				<rect x="-773" y="956.7" transform="matrix(0.7071 -0.7071 0.7071 0.7071 -906.3428 -257.9517)" class="st9" width="16.8" height="16.8"/>
			
				<rect x="-749.2" y="932.9" transform="matrix(0.7071 -0.7071 0.7071 0.7071 -882.5556 -248.0992)" class="st9" width="16.8" height="16.8"/>
			
				<rect x="-677.8" y="861.5" transform="matrix(0.7071 -0.7071 0.7071 0.7071 -811.1998 -218.5411)" class="st9" width="16.8" height="16.8"/>
			
				<rect x="-856.2" y="921" transform="matrix(0.7071 -0.7071 0.7071 0.7071 -905.5001 -327.2693)" class="st9" width="16.8" height="16.8"/>
			
				<rect x="-844.3" y="932.9" transform="matrix(0.7071 -0.7071 0.7071 0.7071 -910.4265 -315.3759)" class="st9" width="16.8" height="16.8"/>
			
				<rect x="-761.1" y="802.1" transform="matrix(0.7071 -0.7071 0.7071 0.7071 -793.5352 -294.8257)" class="st9" width="16.8" height="16.8"/>
			
				<rect x="-784.8" y="825.8" transform="matrix(0.7071 -0.7071 0.7071 0.7071 -817.3237 -304.6779)" class="st9" width="16.8" height="16.8"/>
			
				<rect x="-773" y="814" transform="matrix(0.7071 -0.7071 0.7071 0.7071 -805.4304 -299.7518)" class="st9" width="16.8" height="16.8"/>
			
				<rect x="-796.7" y="837.7" transform="matrix(0.7071 -0.7071 0.7071 0.7071 -829.2155 -309.6044)" class="st9" width="16.8" height="16.8"/>
			
				<rect x="-868.1" y="909.1" transform="matrix(0.7071 -0.7071 0.7071 0.7071 -900.574 -339.1622)" class="st9" width="16.8" height="16.8"/>
			
				<rect x="-713.5" y="873.4" transform="matrix(0.7071 -0.7071 0.7071 0.7071 -830.0596 -240.2868)" class="st9" width="16.8" height="16.8"/>
			
				<rect x="-689.7" y="897.2" transform="matrix(0.7071 -0.7071 0.7071 0.7071 -839.9097 -216.501)" class="st9" width="16.8" height="16.8"/>
			
				<rect x="-725.4" y="861.5" transform="matrix(0.7071 -0.7071 0.7071 0.7071 -825.1334 -252.1797)" class="st9" width="16.8" height="16.8"/>
			
				<rect x="-701.6" y="885.3" transform="matrix(0.7071 -0.7071 0.7071 0.7071 -834.986 -228.3934)" class="st9" width="16.8" height="16.8"/>
			
				<rect x="-737.3" y="968.6" transform="matrix(0.7071 -0.7071 0.7071 0.7071 -904.3025 -229.2393)" class="st9" width="16.8" height="16.8"/>
			
				<rect x="-749.2" y="980.5" transform="matrix(0.7071 -0.7071 0.7071 0.7071 -916.1954 -234.1655)" class="st9" width="16.8" height="16.8"/>
			
				<rect x="-725.4" y="956.7" transform="matrix(0.7071 -0.7071 0.7071 0.7071 -892.4092 -224.313)" class="st9" width="16.8" height="16.8"/>
			
				<rect x="-832.4" y="897.2" transform="matrix(0.7071 -0.7071 0.7071 0.7071 -881.7139 -317.4167)" class="st9" width="16.8" height="16.8"/>
			
				<rect x="-856.2" y="873.4" transform="matrix(0.7071 -0.7071 0.7071 0.7071 -871.8615 -341.2025)" class="st9" width="16.8" height="16.8"/>
			
				<rect x="-820.5" y="909.1" transform="matrix(0.7071 -0.7071 0.7071 0.7071 -886.6404 -305.5236)" class="st9" width="16.8" height="16.8"/>
			
				<rect x="-844.3" y="885.3" transform="matrix(0.7071 -0.7071 0.7071 0.7071 -876.7877 -329.3096)" class="st9" width="16.8" height="16.8"/>
			
				<rect x="-808.6" y="802.1" transform="matrix(0.7071 -0.7071 0.7071 0.7071 -807.4698 -328.4643)" class="st9" width="16.8" height="16.8"/>
			
				<rect x="-796.7" y="790.2" transform="matrix(0.7071 -0.7071 0.7071 0.7071 -795.5768 -323.538)" class="st9" width="16.8" height="16.8"/>
			
				<rect x="-820.5" y="814" transform="matrix(0.7071 -0.7071 0.7071 0.7071 -819.3628 -333.3905)" class="st9" width="16.8" height="16.8"/>
			
				<rect x="-832.4" y="849.6" transform="matrix(0.7071 -0.7071 0.7071 0.7071 -848.0756 -331.35)" class="st9" width="16.8" height="16.8"/>
			
				<rect x="-713.5" y="921" transform="matrix(0.7071 -0.7071 0.7071 0.7071 -863.6959 -226.3536)" class="st9" width="16.8" height="16.8"/>
			
				<rect x="-737.3" y="897.2" transform="matrix(0.7071 -0.7071 0.7071 0.7071 -853.8433 -250.1398)" class="st9" width="16.8" height="16.8"/>
			
				<rect x="-808.6" y="944.8" transform="matrix(0.7071 -0.7071 0.7071 0.7071 -908.3859 -286.6635)" class="st9" width="16.8" height="16.8"/>
			
				<rect x="-784.8" y="921" transform="matrix(0.7071 -0.7071 0.7071 0.7071 -884.5997 -276.8112)" class="st9" width="16.8" height="16.8"/>
			
				<rect x="-820.5" y="956.7" transform="matrix(0.7071 -0.7071 0.7071 0.7071 -920.2776 -291.5901)" class="st9" width="16.8" height="16.8"/>
			
				<rect x="-796.7" y="932.9" transform="matrix(0.7071 -0.7071 0.7071 0.7071 -896.4929 -281.7373)" class="st9" width="16.8" height="16.8"/>
			
				<rect x="-773" y="909.1" transform="matrix(0.7071 -0.7071 0.7071 0.7071 -872.703 -271.8854)" class="st9" width="16.8" height="16.8"/>
			
				<rect x="-749.2" y="885.3" transform="matrix(0.7071 -0.7071 0.7071 0.7071 -848.9197 -262.0323)" class="st9" width="16.8" height="16.8"/>
			
				<rect x="-725.4" y="909.1" transform="matrix(0.7071 -0.7071 0.7071 0.7071 -858.7694 -238.2467)" class="st9" width="16.8" height="16.8"/>
			
				<rect x="-701.6" y="932.9" transform="matrix(0.7071 -0.7071 0.7071 0.7071 -868.6221 -214.4607)" class="st9" width="16.8" height="16.8"/>
			
				<rect x="-808.6" y="873.4" transform="matrix(0.7071 -0.7071 0.7071 0.7071 -857.9279 -307.5638)" class="st9" width="16.8" height="16.8"/>
			
				<rect x="-737.3" y="825.8" transform="matrix(0.7071 -0.7071 0.7071 0.7071 -803.3878 -271.0395)" class="st9" width="16.8" height="16.8"/>
			
				<rect x="-761.1" y="849.6" transform="matrix(0.7071 -0.7071 0.7071 0.7071 -827.174 -280.8921)" class="st9" width="16.8" height="16.8"/>
			
				<rect x="-725.4" y="814" transform="matrix(0.7071 -0.7071 0.7071 0.7071 -791.4949 -266.1133)" class="st9" width="16.8" height="16.8"/>
			
				<rect x="-749.2" y="837.7" transform="matrix(0.7071 -0.7071 0.7071 0.7071 -815.2811 -275.9659)" class="st9" width="16.8" height="16.8"/>
			
				<rect x="-773" y="861.5" transform="matrix(0.7071 -0.7071 0.7071 0.7071 -839.0693 -285.8181)" class="st9" width="16.8" height="16.8"/>
			
				<rect x="-796.7" y="885.3" transform="matrix(0.7071 -0.7071 0.7071 0.7071 -862.8541 -295.671)" class="st9" width="16.8" height="16.8"/>
			
				<rect x="-820.5" y="861.5" transform="matrix(0.7071 -0.7071 0.7071 0.7071 -853.0016 -319.4568)" class="st9" width="16.8" height="16.8"/>
			
				<rect x="-844.3" y="837.7" transform="matrix(0.7071 -0.7071 0.7071 0.7071 -843.1491 -343.2431)" class="st9" width="16.8" height="16.8"/>
			<path class="st9" d="M-533.8,1100.3c-2.9,1.9-5.8,3.8-8.8,5.7l2.7,4.7L-533.8,1100.3z"/>
			<path class="st9" d="M-904.6,1191.3c12.2,12.2,29.3,19.2,50.9,19.2c22.2,0,39.7-7.4,52-20.2c-18.8,1.7-38,2.5-57.4,2.5
				C-874.5,1192.9-889.6,1192.3-904.6,1191.3"/>
			<path class="st9" d="M-999,1185.1c-15.4,0-24.9-4.9-28.9-14.6c-10.4-2.8-20.6-6-30.6-9.3h-1.3c0.9,32.7,21,49.3,60.8,49.3
				c27.6,0,45.7-7.8,54.2-23.3c-11.7-1.5-23.2-3.4-34.6-5.6C-984.1,1183.9-990.6,1185.1-999,1185.1"/>
			<path class="st9" d="M-539.8,1110.8l-2.7-4.7c-7.7,4.8-15.5,9.5-23.5,14l7.2,11.3l-47.1,77h35.6l30.5-52.2l30.7,52.2h35.8
				l-47.1-77l47.1-73.4h-5.9c-16.7,15.2-35,29.4-54.6,42.4L-539.8,1110.8z"/>
			<path class="st9" d="M-766.8,1208.3h104.2v-27.6h-70.8c-11,2.2-22.1,4.1-33.4,5.7V1208.3z"/>
			<path class="st9" d="M-649.8,1208.3h30.7v-62.5c-10,4.2-20.3,8.2-30.7,11.9V1208.3z"/>
			<path class="st9" d="M-1027.9,1170.5c-10.4-2.8-20.6-6-30.6-9.3h28.5C-1029.7,1164.7-1029,1167.8-1027.9,1170.5 M-570.4,1057.9
				H-606l39.9,62.2c8-4.5,15.9-9.2,23.5-14L-570.4,1057.9z M-781.6,1133.1c0,23.8-7,43.6-20.1,57.3c-18.8,1.7-38,2.5-57.4,2.5
				c-15.3,0-30.5-0.6-45.4-1.6c-13.7-13.7-21-33.9-21-58.2c0-46,27.2-77.6,71.9-77.6C-808.8,1055.5-781.6,1087.5-781.6,1133.1
				 M-812.3,1133.1c0-29.6-13.3-50.9-41.4-50.9c-28.1,0-41.1,21.7-41.1,50.9c0,29.4,13.1,51.5,41.1,51.5
				C-825.6,1184.6-812.3,1163.4-812.3,1133.1 M-513.5,1065.6l-20.2,34.7c19.6-13,37.9-27.2,54.6-42.4H-500
				C-506.4,1057.9-510.9,1060.5-513.5,1065.6 M-736,1057.9h-15.3c-8.6,0-15.5,7.5-15.5,16.1v112.3c11.3-1.6,22.4-3.5,33.4-5.7h-2.6
				V1057.9z M-963.2,1129.3c-12.6-4.4-24.6-7.7-35.8-10.4c-19.7-4.4-29.2-11.3-29.2-20.8c0.7-11.5,8.6-17.5,24.6-17.7
				c13.1,0,22.1,4.2,27.2,12.8c2.9,5.8,7.3,8.8,13.7,8.8h17.3c-1.8-31.2-20.1-46.7-55.5-46.7c-37.2-0.2-56,15.3-56.6,46.9
				c0,19.9,14.6,33.6,44,41.1c10.8,2.9,21,5.5,29.9,8.2c9.3,2.7,13.7,7.5,13.7,14.8c0.1,7.1-3,12.2-9.4,15.2
				c11.4,2.1,22.9,4,34.6,5.6c3.2-5.8,5.1-12.7,5.6-20.8C-938.4,1147.5-946.4,1135.1-963.2,1129.3 M-634.3,1057.9
				c-10.4,0-15.5,5.5-15.5,16.1v83.7c10.5-3.7,20.7-7.7,30.7-11.9v-87.9H-634.3z"/>
			<polygon class="st9" points="-133.9,1227.5 -143.5,1227.5 -143.5,1253.6 -147.5,1253.6 -147.5,1227.5 -157,1227.5 -157,1224.4 
				-133.9,1224.4 			"/>
			<polygon class="st9" points="-86.8,1240.1 -98.8,1240.1 -98.8,1250.5 -84.7,1250.5 -84.7,1253.6 -102.7,1253.6 -102.7,1224.4 
				-85,1224.4 -85,1227.5 -98.8,1227.5 -98.8,1237 -86.8,1237 			"/>
			<path class="st9" d="M-32.2,1244.3l0,0.1c0.1,2.7-0.9,5-2.9,6.9c-2,1.8-4.6,2.8-7.8,2.8c-3.3,0-6-1.2-8.1-3.5
				c-2.1-2.3-3.1-5.3-3.1-8.9v-5.2c0-3.6,1-6.6,3.1-8.9c2.1-2.3,4.8-3.5,8.1-3.5c3.3,0,5.9,0.9,7.9,2.6c1.9,1.8,2.9,4.1,2.8,7l0,0.1
				H-36c0-2-0.6-3.7-1.8-4.8c-1.2-1.2-2.9-1.8-5.1-1.8c-2.2,0-4,0.9-5.3,2.7c-1.3,1.8-2,4-2,6.6v5.2c0,2.7,0.7,4.9,2,6.6
				c1.3,1.8,3.1,2.7,5.3,2.7c2.2,0,3.9-0.6,5.1-1.8c1.2-1.2,1.8-2.8,1.8-4.9H-32.2z"/>
			<polygon class="st9" points="22.1,1253.6 18.1,1253.6 18.1,1240.7 4,1240.7 4,1253.6 0,1253.6 0,1224.4 4,1224.4 4,1237.6 
				18.1,1237.6 18.1,1224.4 22.1,1224.4 			"/>
			<polygon class="st9" points="78,1253.6 74,1253.6 60,1231.3 59.9,1231.4 59.9,1253.6 55.9,1253.6 55.9,1224.4 59.9,1224.4 
				73.9,1246.7 74,1246.6 74,1224.4 78,1224.4 			"/>
			<path class="st9" d="M134.1,1241.6c0,3.6-1.1,6.5-3.3,8.9c-2.2,2.3-5.1,3.5-8.6,3.5c-3.4,0-6.2-1.2-8.3-3.5
				c-2.1-2.3-3.2-5.3-3.2-8.9v-5.2c0-3.6,1.1-6.5,3.2-8.9c2.1-2.4,4.9-3.5,8.3-3.5c3.5,0,6.4,1.2,8.6,3.5c2.2,2.4,3.3,5.3,3.3,8.9
				V1241.6z M130.2,1236.4c0-2.7-0.7-4.9-2.2-6.6c-1.4-1.7-3.4-2.6-5.8-2.6c-2.3,0-4.1,0.9-5.5,2.6c-1.4,1.7-2.1,3.9-2.1,6.6v5.2
				c0,2.7,0.7,4.9,2.1,6.6c1.4,1.7,3.2,2.6,5.5,2.6c2.4,0,4.4-0.9,5.8-2.6c1.4-1.7,2.2-3.9,2.2-6.6V1236.4z"/>
			<polygon class="st9" points="170.8,1250.5 185.1,1250.5 185.1,1253.6 166.9,1253.6 166.9,1224.4 170.8,1224.4 			"/>
			<path class="st9" d="M237.5,1241.6c0,3.6-1.1,6.5-3.3,8.9c-2.2,2.3-5.1,3.5-8.6,3.5c-3.4,0-6.2-1.2-8.3-3.5
				c-2.1-2.3-3.2-5.3-3.2-8.9v-5.2c0-3.6,1.1-6.5,3.2-8.9c2.1-2.4,4.9-3.5,8.3-3.5c3.5,0,6.4,1.2,8.6,3.5c2.2,2.4,3.3,5.3,3.3,8.9
				V1241.6z M233.5,1236.4c0-2.7-0.7-4.9-2.2-6.6c-1.4-1.7-3.4-2.6-5.8-2.6c-2.3,0-4.1,0.9-5.5,2.6c-1.4,1.7-2.1,3.9-2.1,6.6v5.2
				c0,2.7,0.7,4.9,2.1,6.6c1.4,1.7,3.2,2.6,5.5,2.6c2.4,0,4.4-0.9,5.8-2.6c1.4-1.7,2.2-3.9,2.2-6.6V1236.4z"/>
			<path class="st9" d="M291.2,1249.7c-0.7,1.1-1.9,2.1-3.6,3c-1.7,0.9-3.9,1.4-6.7,1.4c-3.4,0-6.1-1.1-8.3-3.3
				c-2.2-2.2-3.3-5.1-3.3-8.6v-6c0-3.5,1.1-6.4,3.2-8.6c2.1-2.2,4.9-3.3,8.2-3.3c3.2,0,5.8,0.9,7.7,2.6c1.9,1.7,2.8,3.9,2.7,6.6
				l0,0.1h-3.8c0-1.8-0.6-3.3-1.7-4.4c-1.1-1.2-2.8-1.8-4.9-1.8c-2.2,0-4,0.8-5.4,2.5c-1.4,1.7-2,3.8-2,6.3v6c0,2.6,0.7,4.7,2.2,6.4
				c1.4,1.7,3.3,2.5,5.5,2.5c1.7,0,3.1-0.2,4.1-0.7c1-0.4,1.8-1,2.3-1.6v-6.6h-6.6v-3.1h10.6V1249.7z"/>
			<rect x="325.5" y="1224.4" class="st9" width="4" height="29.2"/>
			<polygon class="st9" points="379.6,1240.1 367.7,1240.1 367.7,1250.5 381.7,1250.5 381.7,1253.6 363.7,1253.6 363.7,1224.4 
				381.5,1224.4 381.5,1227.5 367.7,1227.5 367.7,1237 379.6,1237 			"/>
			<path class="st9" d="M428.9,1246.2c0-1.3-0.5-2.4-1.4-3.3c-0.9-0.9-2.6-1.7-5-2.3c-3-0.7-5.3-1.8-6.9-3.2
				c-1.7-1.4-2.5-3.2-2.5-5.4c0-2.3,0.9-4.2,2.7-5.7c1.8-1.5,4.1-2.3,7-2.3c3.1,0,5.5,0.9,7.3,2.6c1.8,1.7,2.7,3.8,2.7,6.1l-0.1,0.1
				h-3.8c0-1.7-0.6-3-1.7-4.1c-1.2-1.1-2.6-1.6-4.4-1.6c-1.8,0-3.3,0.4-4.2,1.3c-1,0.9-1.5,2.1-1.5,3.5c0,1.3,0.5,2.3,1.6,3.2
				c1.1,0.8,2.8,1.6,5.2,2.2c2.9,0.8,5.2,1.9,6.7,3.4c1.5,1.5,2.3,3.3,2.3,5.5c0,2.4-0.9,4.2-2.8,5.7c-1.8,1.4-4.3,2.1-7.2,2.1
				c-2.8,0-5.3-0.8-7.5-2.4c-2.2-1.6-3.2-3.7-3.1-6.3l0-0.1h3.8c0,1.8,0.7,3.2,2.1,4.2c1.4,1,3,1.5,4.7,1.5c1.9,0,3.3-0.4,4.4-1.3
				C428.4,1248.8,428.9,1247.7,428.9,1246.2"/>
			
				<rect x="212.4" y="849.6" transform="matrix(0.7071 -0.7071 0.7071 0.7071 -542.0421 407.4813)" class="st9" width="16.8" height="16.8"/>
			
				<rect x="200.5" y="837.7" transform="matrix(0.7071 -0.7071 0.7071 0.7071 -537.1159 395.5883)" class="st9" width="16.8" height="16.8"/>
			
				<rect x="117.3" y="968.6" transform="matrix(0.7071 -0.7071 0.7071 0.7071 -654.0038 375.0351)" class="st9" width="16.8" height="16.8"/>
			
				<rect x="141.1" y="944.8" transform="matrix(0.7071 -0.7071 0.7071 0.7071 -630.2169 384.8858)" class="st9" width="16.8" height="16.8"/>
			
				<rect x="129.2" y="956.7" transform="matrix(0.7071 -0.7071 0.7071 0.7071 -642.1098 379.9595)" class="st9" width="16.8" height="16.8"/>
			
				<rect x="153" y="932.9" transform="matrix(0.7071 -0.7071 0.7071 0.7071 -618.3233 389.8114)" class="st9" width="16.8" height="16.8"/>
			
				<rect x="224.3" y="861.5" transform="matrix(0.7071 -0.7071 0.7071 0.7071 -546.9683 419.3743)" class="st9" width="16.8" height="16.8"/>
			
				<rect x="45.9" y="921" transform="matrix(0.7071 -0.7071 0.7071 0.7071 -641.2662 310.6444)" class="st9" width="16.8" height="16.8"/>
			
				<rect x="57.8" y="932.9" transform="matrix(0.7071 -0.7071 0.7071 0.7071 -646.1926 322.5377)" class="st9" width="16.8" height="16.8"/>
			
				<rect x="141.1" y="802.1" transform="matrix(0.7071 -0.7071 0.7071 0.7071 -529.3037 343.0894)" class="st9" width="16.8" height="16.8"/>
			
				<rect x="117.3" y="825.8" transform="matrix(0.7071 -0.7071 0.7071 0.7071 -553.0898 333.237)" class="st9" width="16.8" height="16.8"/>
			
				<rect x="129.2" y="814" transform="matrix(0.7071 -0.7071 0.7071 0.7071 -541.1965 338.1633)" class="st9" width="16.8" height="16.8"/>
			
				<rect x="105.4" y="837.7" transform="matrix(0.7071 -0.7071 0.7071 0.7071 -564.9828 328.3107)" class="st9" width="16.8" height="16.8"/>
			
				<rect x="34" y="909.1" transform="matrix(0.7071 -0.7071 0.7071 0.7071 -636.3401 298.7514)" class="st9" width="16.8" height="16.8"/>
			
				<rect x="188.7" y="873.4" transform="matrix(0.7071 -0.7071 0.7071 0.7071 -565.8282 397.6287)" class="st9" width="16.8" height="16.8"/>
			
				<rect x="212.4" y="897.2" transform="matrix(0.7071 -0.7071 0.7071 0.7071 -575.6776 421.4095)" class="st9" width="16.8" height="16.8"/>
			
				<rect x="176.8" y="861.5" transform="matrix(0.7071 -0.7071 0.7071 0.7071 -560.902 385.7356)" class="st9" width="16.8" height="16.8"/>
			
				<rect x="200.5" y="885.3" transform="matrix(0.7071 -0.7071 0.7071 0.7071 -570.7546 409.5219)" class="st9" width="16.8" height="16.8"/>
			
				<rect x="164.9" y="968.6" transform="matrix(0.7071 -0.7071 0.7071 0.7071 -640.0695 408.6719)" class="st9" width="16.8" height="16.8"/>
			
				<rect x="153" y="980.5" transform="matrix(0.7071 -0.7071 0.7071 0.7071 -651.9623 403.7457)" class="st9" width="16.8" height="16.8"/>
			
				<rect x="176.8" y="956.7" transform="matrix(0.7071 -0.7071 0.7071 0.7071 -628.1763 413.598)" class="st9" width="16.8" height="16.8"/>
			
				<rect x="69.7" y="897.2" transform="matrix(0.7071 -0.7071 0.7071 0.7071 -617.48 320.497)" class="st9" width="16.8" height="16.8"/>
			
				<rect x="45.9" y="873.4" transform="matrix(0.7071 -0.7071 0.7071 0.7071 -607.6289 296.7127)" class="st9" width="16.8" height="16.8"/>
			
				<rect x="81.6" y="909.1" transform="matrix(0.7071 -0.7071 0.7071 0.7071 -622.4065 332.3901)" class="st9" width="16.8" height="16.8"/>
			
				<rect x="57.8" y="885.3" transform="matrix(0.7071 -0.7071 0.7071 0.7071 -612.5538 308.6041)" class="st9" width="16.8" height="16.8"/>
			
				<rect x="93.5" y="802.1" transform="matrix(0.7071 -0.7071 0.7071 0.7071 -543.2372 309.4509)" class="st9" width="16.8" height="16.8"/>
			
				<rect x="105.4" y="790.2" transform="matrix(0.7071 -0.7071 0.7071 0.7071 -531.3442 314.377)" class="st9" width="16.8" height="16.8"/>
			
				<rect x="81.6" y="814" transform="matrix(0.7071 -0.7071 0.7071 0.7071 -555.1302 304.5246)" class="st9" width="16.8" height="16.8"/>
			
				<rect x="69.7" y="849.6" transform="matrix(0.7071 -0.7071 0.7071 0.7071 -583.843 306.5652)" class="st9" width="16.8" height="16.8"/>
			
				<rect x="188.7" y="921" transform="matrix(0.7071 -0.7071 0.7071 0.7071 -599.4636 411.5569)" class="st9" width="16.8" height="16.8"/>
			
				<rect x="164.9" y="897.2" transform="matrix(0.7071 -0.7071 0.7071 0.7071 -589.6111 387.7709)" class="st9" width="16.8" height="16.8"/>
			
				<rect x="93.5" y="944.8" transform="matrix(0.7071 -0.7071 0.7071 0.7071 -644.152 351.2501)" class="st9" width="16.8" height="16.8"/>
			
				<rect x="117.3" y="921" transform="matrix(0.7071 -0.7071 0.7071 0.7071 -620.3659 361.1024)" class="st9" width="16.8" height="16.8"/>
			
				<rect x="81.6" y="956.7" transform="matrix(0.7071 -0.7071 0.7071 0.7071 -656.0444 346.3228)" class="st9" width="16.8" height="16.8"/>
			
				<rect x="105.4" y="932.9" transform="matrix(0.7071 -0.7071 0.7071 0.7071 -632.2591 356.1763)" class="st9" width="16.8" height="16.8"/>
			
				<rect x="129.2" y="909.1" transform="matrix(0.7071 -0.7071 0.7071 0.7071 -608.4706 366.0253)" class="st9" width="16.8" height="16.8"/>
			
				<rect x="153" y="885.3" transform="matrix(0.7071 -0.7071 0.7071 0.7071 -584.6883 375.8831)" class="st9" width="16.8" height="16.8"/>
			
				<rect x="176.8" y="909.1" transform="matrix(0.7071 -0.7071 0.7071 0.7071 -594.5372 399.6637)" class="st9" width="16.8" height="16.8"/>
			
				<rect x="200.5" y="932.9" transform="matrix(0.7071 -0.7071 0.7071 0.7071 -604.3898 423.4499)" class="st9" width="16.8" height="16.8"/>
			
				<rect x="93.5" y="873.4" transform="matrix(0.7071 -0.7071 0.7071 0.7071 -593.6953 330.3514)" class="st9" width="16.8" height="16.8"/>
			
				<rect x="164.9" y="825.8" transform="matrix(0.7071 -0.7071 0.7071 0.7071 -539.1564 366.8755)" class="st9" width="16.8" height="16.8"/>
			
				<rect x="141.1" y="849.6" transform="matrix(0.7071 -0.7071 0.7071 0.7071 -562.9426 357.0232)" class="st9" width="16.8" height="16.8"/>
			
				<rect x="176.8" y="814" transform="matrix(0.7071 -0.7071 0.7071 0.7071 -527.2633 371.802)" class="st9" width="16.8" height="16.8"/>
			
				<rect x="153" y="837.7" transform="matrix(0.7071 -0.7071 0.7071 0.7071 -551.0496 361.9494)" class="st9" width="16.8" height="16.8"/>
			
				<rect x="129.2" y="861.5" transform="matrix(0.7071 -0.7071 0.7071 0.7071 -574.8354 352.097)" class="st9" width="16.8" height="16.8"/>
			
				<rect x="105.4" y="885.3" transform="matrix(0.7071 -0.7071 0.7071 0.7071 -598.6202 342.2426)" class="st9" width="16.8" height="16.8"/>
			
				<rect x="81.6" y="861.5" transform="matrix(0.7071 -0.7071 0.7071 0.7071 -588.7691 318.4583)" class="st9" width="16.8" height="16.8"/>
			
				<rect x="57.8" y="837.7" transform="matrix(0.7071 -0.7071 0.7071 0.7071 -578.9165 294.6721)" class="st9" width="16.8" height="16.8"/>
			<path class="st9" d="M368.4,1100.3c-2.9,1.9-5.8,3.8-8.8,5.7l2.7,4.7L368.4,1100.3z"/>
			<path class="st9" d="M-2.4,1191.3c12.2,12.2,29.3,19.2,50.9,19.2c22.2,0,39.7-7.4,52-20.2c-18.8,1.7-38,2.5-57.4,2.5
				C27.7,1192.9,12.5,1192.3-2.4,1191.3"/>
			<path class="st9" d="M-96.9,1185.1c-15.4,0-24.9-4.9-28.9-14.6c-10.4-2.8-20.6-6-30.6-9.3h-1.3c0.9,32.7,21,49.3,60.8,49.3
				c27.6,0,45.7-7.8,54.2-23.3c-11.7-1.5-23.2-3.4-34.6-5.6C-82,1183.9-88.5,1185.1-96.9,1185.1"/>
			<path class="st9" d="M362.3,1110.8l-2.7-4.7c-7.7,4.8-15.5,9.5-23.5,14l7.2,11.3l-47.1,77h35.6l30.5-52.2l30.7,52.2h35.8
				l-47.1-77l47.1-73.4H423c-16.7,15.2-35,29.4-54.6,42.4L362.3,1110.8z"/>
			<path class="st9" d="M135.4,1208.3h104.2v-27.6h-70.8c-11,2.2-22.1,4.1-33.4,5.7V1208.3z"/>
			<path class="st9" d="M252.4,1208.3h30.7v-62.5c-10,4.2-20.3,8.2-30.7,11.9V1208.3z"/>
			<path class="st9" d="M-125.8,1170.5c-10.4-2.8-20.6-6-30.6-9.3h28.5C-127.6,1164.7-126.9,1167.8-125.8,1170.5 M331.8,1057.9
				h-35.6L336,1120c8-4.5,15.9-9.2,23.5-14L331.8,1057.9z M120.6,1133.1c0,23.8-7,43.6-20.1,57.3c-18.8,1.7-38,2.5-57.4,2.5
				c-15.3,0-30.5-0.6-45.4-1.6c-13.7-13.7-21-33.9-21-58.2c0-46,27.2-77.6,71.9-77.6C93.4,1055.5,120.6,1087.5,120.6,1133.1
				 M89.8,1133.1c0-29.6-13.3-50.9-41.4-50.9c-28.1,0-41.1,21.7-41.1,50.9c0,29.4,13.1,51.5,41.1,51.5
				C76.5,1184.6,89.8,1163.4,89.8,1133.1 M388.6,1065.6l-20.2,34.7c19.6-13,37.9-27.2,54.6-42.4h-20.9
				C395.7,1057.9,391.3,1060.5,388.6,1065.6 M166.1,1057.9h-15.3c-8.6,0-15.5,7.5-15.5,16.1v112.3c11.3-1.6,22.4-3.5,33.4-5.7h-2.6
				V1057.9z M-61,1129.3c-12.6-4.4-24.6-7.7-35.8-10.4c-19.7-4.4-29.2-11.3-29.2-20.8c0.7-11.5,8.6-17.5,24.6-17.7
				c13.1,0,22.1,4.2,27.2,12.8c2.9,5.8,7.3,8.8,13.7,8.8h17.3c-1.8-31.2-20.1-46.7-55.5-46.7c-37.2-0.2-56,15.3-56.6,46.9
				c0,19.9,14.6,33.6,44,41.1c10.8,2.9,21,5.5,29.9,8.2c9.3,2.7,13.7,7.5,13.7,14.8c0.1,7.1-3,12.2-9.4,15.2
				c11.4,2.1,22.9,4,34.6,5.6c3.2-5.8,5.1-12.7,5.6-20.8C-36.3,1147.5-44.2,1135.1-61,1129.3 M267.9,1057.9
				c-10.4,0-15.5,5.5-15.5,16.1v83.7c10.5-3.7,20.7-7.7,30.7-11.9v-87.9H267.9z"/>
			<polygon class="st9" points="768.2,1227.5 758.6,1227.5 758.6,1253.6 754.7,1253.6 754.7,1227.5 745.2,1227.5 745.2,1224.4 
				768.2,1224.4 			"/>
			<polygon class="st9" points="815.4,1240.1 803.4,1240.1 803.4,1250.5 817.4,1250.5 817.4,1253.6 799.5,1253.6 799.5,1224.4 
				817.2,1224.4 817.2,1227.5 803.4,1227.5 803.4,1237 815.4,1237 			"/>
			<path class="st9" d="M869.9,1244.3l0,0.1c0.1,2.7-0.9,5-2.9,6.9c-2,1.8-4.6,2.8-7.8,2.8c-3.3,0-6-1.2-8.1-3.5
				c-2.1-2.3-3.1-5.3-3.1-8.9v-5.2c0-3.6,1-6.6,3.1-8.9c2.1-2.3,4.8-3.5,8.1-3.5c3.3,0,5.9,0.9,7.9,2.6c1.9,1.8,2.9,4.1,2.8,7l0,0.1
				h-3.8c0-2-0.6-3.7-1.8-4.8c-1.2-1.2-2.9-1.8-5.1-1.8c-2.2,0-4,0.9-5.3,2.7c-1.3,1.8-2,4-2,6.6v5.2c0,2.7,0.7,4.9,2,6.6
				c1.3,1.8,3.1,2.7,5.3,2.7c2.2,0,3.9-0.6,5.1-1.8c1.2-1.2,1.8-2.8,1.8-4.9H869.9z"/>
			<polygon class="st9" points="924.2,1253.6 920.3,1253.6 920.3,1240.7 906.1,1240.7 906.1,1253.6 902.2,1253.6 902.2,1224.4 
				906.1,1224.4 906.1,1237.6 920.3,1237.6 920.3,1224.4 924.2,1224.4 			"/>
			<polygon class="st9" points="980.1,1253.6 976.2,1253.6 962.2,1231.3 962,1231.4 962,1253.6 958.1,1253.6 958.1,1224.4 
				962,1224.4 976.1,1246.7 976.2,1246.6 976.2,1224.4 980.1,1224.4 			"/>
			<path class="st9" d="M1036.3,1241.6c0,3.6-1.1,6.5-3.3,8.9c-2.2,2.3-5.1,3.5-8.6,3.5c-3.4,0-6.2-1.2-8.3-3.5
				c-2.1-2.3-3.2-5.3-3.2-8.9v-5.2c0-3.6,1.1-6.5,3.2-8.9c2.1-2.4,4.9-3.5,8.3-3.5c3.5,0,6.4,1.2,8.6,3.5c2.2,2.4,3.3,5.3,3.3,8.9
				V1241.6z M1032.4,1236.4c0-2.7-0.7-4.9-2.2-6.6s-3.4-2.6-5.8-2.6c-2.3,0-4.1,0.9-5.5,2.6c-1.4,1.7-2.1,3.9-2.1,6.6v5.2
				c0,2.7,0.7,4.9,2.1,6.6c1.4,1.7,3.2,2.6,5.5,2.6c2.4,0,4.4-0.9,5.8-2.6c1.4-1.7,2.2-3.9,2.2-6.6V1236.4z"/>
			<polygon class="st9" points="1073,1250.5 1087.2,1250.5 1087.2,1253.6 1069,1253.6 1069,1224.4 1073,1224.4 			"/>
			<path class="st9" d="M1139.6,1241.6c0,3.6-1.1,6.5-3.3,8.9c-2.2,2.3-5.1,3.5-8.6,3.5c-3.4,0-6.2-1.2-8.3-3.5
				c-2.1-2.3-3.2-5.3-3.2-8.9v-5.2c0-3.6,1.1-6.5,3.2-8.9c2.1-2.4,4.9-3.5,8.3-3.5c3.5,0,6.4,1.2,8.6,3.5c2.2,2.4,3.3,5.3,3.3,8.9
				V1241.6z M1135.7,1236.4c0-2.7-0.7-4.9-2.2-6.6c-1.4-1.7-3.4-2.6-5.8-2.6c-2.3,0-4.1,0.9-5.5,2.6c-1.4,1.7-2.1,3.9-2.1,6.6v5.2
				c0,2.7,0.7,4.9,2.1,6.6c1.4,1.7,3.2,2.6,5.5,2.6c2.4,0,4.4-0.9,5.8-2.6c1.4-1.7,2.2-3.9,2.2-6.6V1236.4z"/>
			<path class="st9" d="M1193.3,1249.7c-0.7,1.1-1.9,2.1-3.6,3c-1.7,0.9-3.9,1.4-6.7,1.4c-3.4,0-6.1-1.1-8.3-3.3
				c-2.2-2.2-3.3-5.1-3.3-8.6v-6c0-3.5,1.1-6.4,3.2-8.6c2.1-2.2,4.9-3.3,8.2-3.3c3.2,0,5.8,0.9,7.7,2.6c1.9,1.7,2.8,3.9,2.7,6.6
				l0,0.1h-3.8c0-1.8-0.6-3.3-1.7-4.4c-1.1-1.2-2.8-1.8-4.9-1.8c-2.2,0-4,0.8-5.4,2.5c-1.4,1.7-2,3.8-2,6.3v6c0,2.6,0.7,4.7,2.2,6.4
				c1.4,1.7,3.3,2.5,5.5,2.5c1.7,0,3.1-0.2,4.1-0.7c1-0.4,1.8-1,2.3-1.6v-6.6h-6.6v-3.1h10.6V1249.7z"/>
			<rect x="1227.6" y="1224.4" class="st9" width="4" height="29.2"/>
			<polygon class="st9" points="1281.8,1240.1 1269.8,1240.1 1269.8,1250.5 1283.8,1250.5 1283.8,1253.6 1265.9,1253.6 
				1265.9,1224.4 1283.6,1224.4 1283.6,1227.5 1269.8,1227.5 1269.8,1237 1281.8,1237 			"/>
			<path class="st9" d="M1331.1,1246.2c0-1.3-0.5-2.4-1.4-3.3c-0.9-0.9-2.6-1.7-5-2.3c-3-0.7-5.3-1.8-6.9-3.2
				c-1.7-1.4-2.5-3.2-2.5-5.4c0-2.3,0.9-4.2,2.7-5.7c1.8-1.5,4.1-2.3,7-2.3c3.1,0,5.5,0.9,7.3,2.6c1.8,1.7,2.7,3.8,2.7,6.1l-0.1,0.1
				h-3.8c0-1.7-0.6-3-1.7-4.1c-1.2-1.1-2.6-1.6-4.4-1.6c-1.8,0-3.3,0.4-4.2,1.3c-1,0.9-1.5,2.1-1.5,3.5c0,1.3,0.5,2.3,1.6,3.2
				c1.1,0.8,2.8,1.6,5.2,2.2c2.9,0.8,5.2,1.9,6.7,3.4c1.5,1.5,2.3,3.3,2.3,5.5c0,2.4-0.9,4.2-2.8,5.7c-1.8,1.4-4.3,2.1-7.2,2.1
				c-2.8,0-5.3-0.8-7.5-2.4c-2.2-1.6-3.2-3.7-3.1-6.3l0-0.1h3.8c0,1.8,0.7,3.2,2.1,4.2c1.4,1,3,1.5,4.7,1.5c1.9,0,3.3-0.4,4.4-1.3
				C1330.5,1248.8,1331.1,1247.7,1331.1,1246.2"/>
			
				<rect x="1114.6" y="849.6" transform="matrix(0.7071 -0.7071 0.7071 0.7071 -277.8082 1045.3965)" class="st9" width="16.8" height="16.8"/>
			
				<rect x="1102.7" y="837.7" transform="matrix(0.7071 -0.7071 0.7071 0.7071 -272.882 1033.5035)" class="st9" width="16.8" height="16.8"/>
			
				<rect x="1019.4" y="968.6" transform="matrix(0.7071 -0.7071 0.7071 0.7071 -389.7722 1012.9419)" class="st9" width="16.8" height="16.8"/>
			
				<rect x="1043.2" y="944.8" transform="matrix(0.7071 -0.7071 0.7071 0.7071 -365.9865 1022.7974)" class="st9" width="16.8" height="16.8"/>
			
				<rect x="1031.3" y="956.7" transform="matrix(0.7071 -0.7071 0.7071 0.7071 -377.8794 1017.8712)" class="st9" width="16.8" height="16.8"/>
			
				<rect x="1055.1" y="932.9" transform="matrix(0.7071 -0.7071 0.7071 0.7071 -354.0936 1027.7223)" class="st9" width="16.8" height="16.8"/>
			
				<rect x="1126.5" y="861.5" transform="matrix(0.7071 -0.7071 0.7071 0.7071 -282.7343 1057.2897)" class="st9" width="16.8" height="16.8"/>
			
				<rect x="948.1" y="921" transform="matrix(0.7071 -0.7071 0.7071 0.7071 -377.0339 948.5522)" class="st9" width="16.8" height="16.8"/>
			
				<rect x="960" y="932.9" transform="matrix(0.7071 -0.7071 0.7071 0.7071 -381.9603 960.4453)" class="st9" width="16.8" height="16.8"/>
			
				<rect x="1043.2" y="802.1" transform="matrix(0.7071 -0.7071 0.7071 0.7071 -265.0698 981.0045)" class="st9" width="16.8" height="16.8"/>
			
				<rect x="1019.4" y="825.8" transform="matrix(0.7071 -0.7071 0.7071 0.7071 -288.8554 971.1577)" class="st9" width="16.8" height="16.8"/>
			
				<rect x="1031.3" y="814" transform="matrix(0.7071 -0.7071 0.7071 0.7071 -276.962 976.0841)" class="st9" width="16.8" height="16.8"/>
			
				<rect x="1007.6" y="837.7" transform="matrix(0.7071 -0.7071 0.7071 0.7071 -300.7484 966.2316)" class="st9" width="16.8" height="16.8"/>
			
				<rect x="936.2" y="909.1" transform="matrix(0.7071 -0.7071 0.7071 0.7071 -372.1077 936.6594)" class="st9" width="16.8" height="16.8"/>
			
				<rect x="1090.8" y="873.4" transform="matrix(0.7071 -0.7071 0.7071 0.7071 -301.5943 1035.5438)" class="st9" width="16.8" height="16.8"/>
			
				<rect x="1114.6" y="897.2" transform="matrix(0.7071 -0.7071 0.7071 0.7071 -311.4478 1059.3206)" class="st9" width="16.8" height="16.8"/>
			
				<rect x="1078.9" y="861.5" transform="matrix(0.7071 -0.7071 0.7071 0.7071 -296.668 1023.6508)" class="st9" width="16.8" height="16.8"/>
			
				<rect x="1102.7" y="885.3" transform="matrix(0.7071 -0.7071 0.7071 0.7071 -306.5206 1047.4371)" class="st9" width="16.8" height="16.8"/>
			
				<rect x="1067" y="968.6" transform="matrix(0.7071 -0.7071 0.7071 0.7071 -375.8391 1046.5835)" class="st9" width="16.8" height="16.8"/>
			
				<rect x="1055.1" y="980.5" transform="matrix(0.7071 -0.7071 0.7071 0.7071 -387.7319 1041.6573)" class="st9" width="16.8" height="16.8"/>
			
				<rect x="1078.9" y="956.7" transform="matrix(0.7071 -0.7071 0.7071 0.7071 -363.9458 1051.5099)" class="st9" width="16.8" height="16.8"/>
			
				<rect x="971.9" y="897.2" transform="matrix(0.7071 -0.7071 0.7071 0.7071 -353.2477 958.4049)" class="st9" width="16.8" height="16.8"/>
			
				<rect x="948.1" y="873.4" transform="matrix(0.7071 -0.7071 0.7071 0.7071 -343.3949 934.6333)" class="st9" width="16.8" height="16.8"/>
			
				<rect x="983.8" y="909.1" transform="matrix(0.7071 -0.7071 0.7071 0.7071 -358.1742 970.2979)" class="st9" width="16.8" height="16.8"/>
			
				<rect x="960" y="885.3" transform="matrix(0.7071 -0.7071 0.7071 0.7071 -348.3216 946.5118)" class="st9" width="16.8" height="16.8"/>
			
				<rect x="995.7" y="802.1" transform="matrix(0.7071 -0.7071 0.7071 0.7071 -279.0027 947.3716)" class="st9" width="16.8" height="16.8"/>
			
				<rect x="1007.6" y="790.2" transform="matrix(0.7071 -0.7071 0.7071 0.7071 -267.1096 952.2977)" class="st9" width="16.8" height="16.8"/>
			
				<rect x="983.8" y="814" transform="matrix(0.7071 -0.7071 0.7071 0.7071 -290.8957 942.4454)" class="st9" width="16.8" height="16.8"/>
			
				<rect x="971.9" y="849.6" transform="matrix(0.7071 -0.7071 0.7071 0.7071 -319.6087 944.486)" class="st9" width="16.8" height="16.8"/>
			
				<rect x="1090.8" y="921" transform="matrix(0.7071 -0.7071 0.7071 0.7071 -335.2339 1049.4679)" class="st9" width="16.8" height="16.8"/>
			
				<rect x="1067" y="897.2" transform="matrix(0.7071 -0.7071 0.7071 0.7071 -325.3814 1025.6818)" class="st9" width="16.8" height="16.8"/>
			
				<rect x="995.7" y="944.8" transform="matrix(0.7071 -0.7071 0.7071 0.7071 -379.9196 989.1578)" class="st9" width="16.8" height="16.8"/>
			
				<rect x="1019.4" y="921" transform="matrix(0.7071 -0.7071 0.7071 0.7071 -356.1337 999.0101)" class="st9" width="16.8" height="16.8"/>
			
				<rect x="983.8" y="956.7" transform="matrix(0.7071 -0.7071 0.7071 0.7071 -391.8127 984.2298)" class="st9" width="16.8" height="16.8"/>
			
				<rect x="1007.6" y="932.9" transform="matrix(0.7071 -0.7071 0.7071 0.7071 -368.0268 994.084)" class="st9" width="16.8" height="16.8"/>
			
				<rect x="1031.3" y="909.1" transform="matrix(0.7071 -0.7071 0.7071 0.7071 -344.2409 1003.9362)" class="st9" width="16.8" height="16.8"/>
			
				<rect x="1055.1" y="885.3" transform="matrix(0.7071 -0.7071 0.7071 0.7071 -320.4544 1013.7981)" class="st9" width="16.8" height="16.8"/>
			
				<rect x="1078.9" y="909.1" transform="matrix(0.7071 -0.7071 0.7071 0.7071 -330.3074 1037.5748)" class="st9" width="16.8" height="16.8"/>
			
				<rect x="1102.7" y="932.9" transform="matrix(0.7071 -0.7071 0.7071 0.7071 -340.1601 1061.3608)" class="st9" width="16.8" height="16.8"/>
			
				<rect x="995.7" y="873.4" transform="matrix(0.7071 -0.7071 0.7071 0.7071 -329.461 968.2723)" class="st9" width="16.8" height="16.8"/>
			
				<rect x="1067" y="825.8" transform="matrix(0.7071 -0.7071 0.7071 0.7071 -274.9224 1004.7908)" class="st9" width="16.8" height="16.8"/>
			
				<rect x="1043.2" y="849.6" transform="matrix(0.7071 -0.7071 0.7071 0.7071 -298.7087 994.9383)" class="st9" width="16.8" height="16.8"/>
			
				<rect x="1078.9" y="814" transform="matrix(0.7071 -0.7071 0.7071 0.7071 -263.0294 1009.7172)" class="st9" width="16.8" height="16.8"/>
			
				<rect x="1055.1" y="837.7" transform="matrix(0.7071 -0.7071 0.7071 0.7071 -286.8157 999.8644)" class="st9" width="16.8" height="16.8"/>
			
				<rect x="1031.3" y="861.5" transform="matrix(0.7071 -0.7071 0.7071 0.7071 -310.601 990.018)" class="st9" width="16.8" height="16.8"/>
			
				<rect x="1007.6" y="885.3" transform="matrix(0.7071 -0.7071 0.7071 0.7071 -334.3881 980.1505)" class="st9" width="16.8" height="16.8"/>
			
				<rect x="983.8" y="861.5" transform="matrix(0.7071 -0.7071 0.7071 0.7071 -324.5348 956.3793)" class="st9" width="16.8" height="16.8"/>
			
				<rect x="960" y="837.7" transform="matrix(0.7071 -0.7071 0.7071 0.7071 -314.6822 932.5928)" class="st9" width="16.8" height="16.8"/>
			<path class="st9" d="M1270.5,1100.3c-2.9,1.9-5.8,3.8-8.8,5.7l2.7,4.7L1270.5,1100.3z"/>
			<path class="st9" d="M899.7,1191.3c12.2,12.2,29.3,19.2,50.9,19.2c22.2,0,39.7-7.4,52-20.2c-18.8,1.7-38,2.5-57.4,2.5
				C929.8,1192.9,914.7,1192.3,899.7,1191.3"/>
			<path class="st9" d="M805.3,1185.1c-15.4,0-24.9-4.9-28.9-14.6c-10.4-2.8-20.6-6-30.6-9.3h-1.3c0.9,32.7,21,49.3,60.8,49.3
				c27.6,0,45.7-7.8,54.2-23.3c-11.7-1.5-23.2-3.4-34.6-5.6C820.2,1183.9,813.6,1185.1,805.3,1185.1"/>
			<path class="st9" d="M1264.5,1110.8l-2.7-4.7c-7.7,4.8-15.5,9.5-23.5,14l7.2,11.3l-47.1,77h35.6l30.5-52.2l30.7,52.2h35.8
				l-47.1-77l47.1-73.4h-5.9c-16.7,15.2-35,29.4-54.6,42.4L1264.5,1110.8z"/>
			<path class="st9" d="M1037.5,1208.3h104.2v-27.6h-70.8c-11,2.2-22.1,4.1-33.4,5.7V1208.3z"/>
			<path class="st9" d="M1154.5,1208.3h30.7v-62.5c-10,4.2-20.3,8.2-30.7,11.9V1208.3z"/>
			<path class="st9" d="M776.4,1170.5c-10.4-2.8-20.6-6-30.6-9.3h28.5C774.6,1164.7,775.3,1167.8,776.4,1170.5 M1233.9,1057.9h-35.6
				l39.9,62.2c8-4.5,15.9-9.2,23.5-14L1233.9,1057.9z M1022.7,1133.1c0,23.8-7,43.6-20.1,57.3c-18.8,1.7-38,2.5-57.4,2.5
				c-15.3,0-30.5-0.6-45.4-1.6c-13.7-13.7-21-33.9-21-58.2c0-46,27.2-77.6,71.9-77.6C995.5,1055.5,1022.7,1087.5,1022.7,1133.1
				 M992,1133.1c0-29.6-13.3-50.9-41.4-50.9c-28.1,0-41.1,21.7-41.1,50.9c0,29.4,13.1,51.5,41.1,51.5
				C978.7,1184.6,992,1163.4,992,1133.1 M1290.8,1065.6l-20.2,34.7c19.6-13,37.9-27.2,54.6-42.4h-20.9
				C1297.9,1057.9,1293.4,1060.5,1290.8,1065.6 M1068.3,1057.9H1053c-8.6,0-15.5,7.5-15.5,16.1v112.3c11.3-1.6,22.4-3.5,33.4-5.7
				h-2.6V1057.9z M841.1,1129.3c-12.6-4.4-24.6-7.7-35.8-10.4c-19.7-4.4-29.2-11.3-29.2-20.8c0.7-11.5,8.6-17.5,24.6-17.7
				c13.1,0,22.1,4.2,27.2,12.8c2.9,5.8,7.3,8.8,13.7,8.8h17.3c-1.8-31.2-20.1-46.7-55.5-46.7c-37.2-0.2-56,15.3-56.6,46.9
				c0,19.9,14.6,33.6,44,41.1c10.8,2.9,21,5.5,29.9,8.2c9.3,2.7,13.7,7.5,13.7,14.8c0.1,7.1-3,12.2-9.4,15.2
				c11.4,2.1,22.9,4,34.6,5.6c3.2-5.8,5.1-12.7,5.6-20.8C865.9,1147.5,857.9,1135.1,841.1,1129.3 M1170,1057.9
				c-10.4,0-15.5,5.5-15.5,16.1v83.7c10.5-3.7,20.7-7.7,30.7-11.9v-87.9H1170z"/>
			<rect x="-1215.6" y="1394.5" class="st9" width="902.1" height="748.4"/>
			<rect x="-313.5" y="1394.5" class="st10" width="902.1" height="748.4"/>
			<rect x="588.7" y="1394.5" class="st11" width="902.1" height="748.4"/>
		</g>
	</g>
</g>
</svg>
